<mxfile host="Electron" modified="2023-09-16T07:34:38.002Z" agent="Mozilla/5.0 (Windows NT 10.0; Win64; x64) AppleWebKit/537.36 (KHTML, like Gecko) draw.io/21.7.5 Chrome/114.0.5735.289 Electron/25.8.1 Safari/537.36" etag="3wvf68Mm_juDSR5kNVcn" version="21.7.5" type="device">
  <diagram id="R2lEEEUBdFMjLlhIrx00" name="Page-1">
    <mxGraphModel dx="1313" dy="839" grid="1" gridSize="10" guides="1" tooltips="1" connect="1" arrows="0" fold="1" page="1" pageScale="1" pageWidth="1169" pageHeight="827" background="none" math="0" shadow="0" extFonts="Permanent Marker^https://fonts.googleapis.com/css?family=Permanent+Marker">
      <root>
        <object label="" id="0">
          <mxCell />
        </object>
        <mxCell id="1" parent="0" />
        <mxCell id="-N6aTKsf7TU79jUoc55K-59" value="&lt;b&gt;users&lt;/b&gt;" style="shape=table;startSize=30;container=1;collapsible=1;childLayout=tableLayout;fixedRows=1;rowLines=0;fontStyle=0;align=center;resizeLast=1;fontSize=12;fontFamily=Helvetica;html=1;whiteSpace=wrap;labelBorderColor=none;labelBackgroundColor=none;shadow=0;spacing=2;swimlaneFillColor=none;rounded=1;swimlaneLine=1;fillColor=none;strokeColor=default;" parent="1" vertex="1">
          <mxGeometry x="390" y="307" width="390" height="270" as="geometry" />
        </mxCell>
        <mxCell id="-N6aTKsf7TU79jUoc55K-60" value="" style="shape=tableRow;horizontal=0;startSize=0;swimlaneHead=0;swimlaneBody=0;fillColor=none;collapsible=0;dropTarget=0;points=[[0,0.5],[1,0.5]];portConstraint=eastwest;top=0;left=0;right=0;bottom=1;fontSize=12;fontFamily=Helvetica;html=1;whiteSpace=wrap;labelBorderColor=none;labelBackgroundColor=none;swimlaneFillColor=default;shadow=0;swimlaneLine=1;rounded=1;strokeColor=default;" parent="-N6aTKsf7TU79jUoc55K-59" vertex="1">
          <mxGeometry y="30" width="390" height="30" as="geometry" />
        </mxCell>
        <mxCell id="-N6aTKsf7TU79jUoc55K-61" value="PK" style="shape=partialRectangle;connectable=0;fillColor=none;top=0;left=0;bottom=0;right=0;fontStyle=1;overflow=hidden;fontSize=12;fontFamily=Helvetica;html=1;whiteSpace=wrap;labelBorderColor=none;labelBackgroundColor=none;swimlaneFillColor=default;shadow=0;swimlaneLine=1;rounded=1;strokeColor=default;" parent="-N6aTKsf7TU79jUoc55K-60" vertex="1">
          <mxGeometry width="40.000000000000455" height="30" as="geometry">
            <mxRectangle width="40.000000000000455" height="30" as="alternateBounds" />
          </mxGeometry>
        </mxCell>
        <mxCell id="-N6aTKsf7TU79jUoc55K-62" value="id" style="shape=partialRectangle;connectable=0;fillColor=none;top=0;left=0;bottom=0;right=0;align=left;spacingLeft=6;fontStyle=5;overflow=hidden;fontSize=12;fontFamily=Helvetica;html=1;whiteSpace=wrap;labelBorderColor=none;labelBackgroundColor=none;swimlaneFillColor=default;shadow=0;swimlaneLine=1;rounded=1;strokeColor=default;" parent="-N6aTKsf7TU79jUoc55K-60" vertex="1">
          <mxGeometry x="40.000000000000455" width="159.99999999999955" height="30" as="geometry">
            <mxRectangle width="159.99999999999955" height="30" as="alternateBounds" />
          </mxGeometry>
        </mxCell>
        <mxCell id="-N6aTKsf7TU79jUoc55K-72" value="UUid:I:U" style="shape=partialRectangle;connectable=0;fillColor=none;top=0;left=0;bottom=0;right=0;align=left;spacingLeft=6;fontStyle=5;overflow=hidden;fontSize=12;fontFamily=Helvetica;html=1;whiteSpace=wrap;labelBorderColor=none;labelBackgroundColor=none;swimlaneFillColor=default;shadow=0;swimlaneLine=1;rounded=1;strokeColor=default;" parent="-N6aTKsf7TU79jUoc55K-60" vertex="1">
          <mxGeometry x="200" width="190" height="30" as="geometry">
            <mxRectangle width="190" height="30" as="alternateBounds" />
          </mxGeometry>
        </mxCell>
        <mxCell id="-N6aTKsf7TU79jUoc55K-63" value="" style="shape=tableRow;horizontal=0;startSize=0;swimlaneHead=0;swimlaneBody=0;fillColor=none;collapsible=0;dropTarget=0;points=[[0,0.5],[1,0.5]];portConstraint=eastwest;top=0;left=0;right=0;bottom=0;fontSize=12;fontFamily=Helvetica;html=1;whiteSpace=wrap;labelBorderColor=none;labelBackgroundColor=none;swimlaneFillColor=default;shadow=0;swimlaneLine=1;rounded=1;strokeColor=default;" parent="-N6aTKsf7TU79jUoc55K-59" vertex="1">
          <mxGeometry y="60" width="390" height="30" as="geometry" />
        </mxCell>
        <mxCell id="-N6aTKsf7TU79jUoc55K-64" value="" style="shape=partialRectangle;connectable=0;fillColor=none;top=0;left=0;bottom=0;right=0;editable=1;overflow=hidden;fontSize=12;fontFamily=Helvetica;html=1;whiteSpace=wrap;labelBorderColor=none;labelBackgroundColor=none;swimlaneFillColor=default;shadow=0;swimlaneLine=1;rounded=1;strokeColor=default;" parent="-N6aTKsf7TU79jUoc55K-63" vertex="1">
          <mxGeometry width="40.000000000000455" height="30" as="geometry">
            <mxRectangle width="40.000000000000455" height="30" as="alternateBounds" />
          </mxGeometry>
        </mxCell>
        <mxCell id="-N6aTKsf7TU79jUoc55K-65" value="email" style="shape=partialRectangle;connectable=0;fillColor=none;top=0;left=0;bottom=0;right=0;align=left;spacingLeft=6;overflow=hidden;fontSize=12;fontFamily=Helvetica;html=1;whiteSpace=wrap;labelBorderColor=none;labelBackgroundColor=none;swimlaneFillColor=default;shadow=0;swimlaneLine=1;rounded=1;strokeColor=default;" parent="-N6aTKsf7TU79jUoc55K-63" vertex="1">
          <mxGeometry x="40.000000000000455" width="159.99999999999955" height="30" as="geometry">
            <mxRectangle width="159.99999999999955" height="30" as="alternateBounds" />
          </mxGeometry>
        </mxCell>
        <mxCell id="-N6aTKsf7TU79jUoc55K-73" value="Text:U" style="shape=partialRectangle;connectable=0;fillColor=none;top=0;left=0;bottom=0;right=0;align=left;spacingLeft=6;overflow=hidden;fontSize=12;fontFamily=Helvetica;html=1;whiteSpace=wrap;labelBorderColor=none;labelBackgroundColor=none;swimlaneFillColor=default;shadow=0;swimlaneLine=1;rounded=1;strokeColor=default;" parent="-N6aTKsf7TU79jUoc55K-63" vertex="1">
          <mxGeometry x="200" width="190" height="30" as="geometry">
            <mxRectangle width="190" height="30" as="alternateBounds" />
          </mxGeometry>
        </mxCell>
        <mxCell id="-N6aTKsf7TU79jUoc55K-69" value="" style="shape=tableRow;horizontal=0;startSize=0;swimlaneHead=0;swimlaneBody=0;fillColor=none;collapsible=0;dropTarget=0;points=[[0,0.5],[1,0.5]];portConstraint=eastwest;top=0;left=0;right=0;bottom=0;fontSize=12;fontFamily=Helvetica;html=1;whiteSpace=wrap;labelBorderColor=none;labelBackgroundColor=none;swimlaneFillColor=default;shadow=0;swimlaneLine=1;rounded=1;strokeColor=default;" parent="-N6aTKsf7TU79jUoc55K-59" vertex="1">
          <mxGeometry y="90" width="390" height="30" as="geometry" />
        </mxCell>
        <mxCell id="-N6aTKsf7TU79jUoc55K-70" value="" style="shape=partialRectangle;connectable=0;fillColor=none;top=0;left=0;bottom=0;right=0;editable=1;overflow=hidden;fontSize=12;fontFamily=Helvetica;html=1;whiteSpace=wrap;labelBorderColor=none;labelBackgroundColor=none;swimlaneFillColor=default;shadow=0;swimlaneLine=1;rounded=1;strokeColor=default;" parent="-N6aTKsf7TU79jUoc55K-69" vertex="1">
          <mxGeometry width="40.000000000000455" height="30" as="geometry">
            <mxRectangle width="40.000000000000455" height="30" as="alternateBounds" />
          </mxGeometry>
        </mxCell>
        <mxCell id="-N6aTKsf7TU79jUoc55K-71" value="is_email_verified" style="shape=partialRectangle;connectable=0;fillColor=none;top=0;left=0;bottom=0;right=0;align=left;spacingLeft=6;overflow=hidden;fontSize=12;fontFamily=Helvetica;html=1;whiteSpace=wrap;labelBorderColor=none;labelBackgroundColor=none;swimlaneFillColor=default;shadow=0;swimlaneLine=1;rounded=1;strokeColor=default;" parent="-N6aTKsf7TU79jUoc55K-69" vertex="1">
          <mxGeometry x="40.000000000000455" width="159.99999999999955" height="30" as="geometry">
            <mxRectangle width="159.99999999999955" height="30" as="alternateBounds" />
          </mxGeometry>
        </mxCell>
        <mxCell id="-N6aTKsf7TU79jUoc55K-75" value="Boolean" style="shape=partialRectangle;connectable=0;fillColor=none;top=0;left=0;bottom=0;right=0;align=left;spacingLeft=6;overflow=hidden;fontSize=12;fontFamily=Helvetica;html=1;whiteSpace=wrap;labelBorderColor=none;labelBackgroundColor=none;swimlaneFillColor=default;shadow=0;swimlaneLine=1;rounded=1;strokeColor=default;" parent="-N6aTKsf7TU79jUoc55K-69" vertex="1">
          <mxGeometry x="200" width="190" height="30" as="geometry">
            <mxRectangle width="190" height="30" as="alternateBounds" />
          </mxGeometry>
        </mxCell>
        <mxCell id="-N6aTKsf7TU79jUoc55K-84" value="" style="shape=tableRow;horizontal=0;startSize=0;swimlaneHead=0;swimlaneBody=0;fillColor=none;collapsible=0;dropTarget=0;points=[[0,0.5],[1,0.5]];portConstraint=eastwest;top=0;left=0;right=0;bottom=0;fontSize=12;fontFamily=Helvetica;html=1;whiteSpace=wrap;labelBorderColor=none;labelBackgroundColor=none;swimlaneFillColor=default;shadow=0;swimlaneLine=1;rounded=1;strokeColor=default;" parent="-N6aTKsf7TU79jUoc55K-59" vertex="1">
          <mxGeometry y="120" width="390" height="30" as="geometry" />
        </mxCell>
        <mxCell id="-N6aTKsf7TU79jUoc55K-85" value="" style="shape=partialRectangle;connectable=0;fillColor=none;top=0;left=0;bottom=0;right=0;editable=1;overflow=hidden;fontSize=12;fontFamily=Helvetica;html=1;whiteSpace=wrap;labelBorderColor=none;labelBackgroundColor=none;swimlaneFillColor=default;shadow=0;swimlaneLine=1;rounded=1;strokeColor=default;" parent="-N6aTKsf7TU79jUoc55K-84" vertex="1">
          <mxGeometry width="40.000000000000455" height="30" as="geometry">
            <mxRectangle width="40.000000000000455" height="30" as="alternateBounds" />
          </mxGeometry>
        </mxCell>
        <mxCell id="-N6aTKsf7TU79jUoc55K-86" value="created_at" style="shape=partialRectangle;connectable=0;fillColor=none;top=0;left=0;bottom=0;right=0;align=left;spacingLeft=6;overflow=hidden;fontSize=12;fontFamily=Helvetica;html=1;whiteSpace=wrap;labelBorderColor=none;labelBackgroundColor=none;swimlaneFillColor=default;shadow=0;swimlaneLine=1;rounded=1;strokeColor=default;" parent="-N6aTKsf7TU79jUoc55K-84" vertex="1">
          <mxGeometry x="40.000000000000455" width="159.99999999999955" height="30" as="geometry">
            <mxRectangle width="159.99999999999955" height="30" as="alternateBounds" />
          </mxGeometry>
        </mxCell>
        <mxCell id="-N6aTKsf7TU79jUoc55K-87" value="Timestamp With Time Zone" style="shape=partialRectangle;connectable=0;fillColor=none;top=0;left=0;bottom=0;right=0;align=left;spacingLeft=6;overflow=hidden;fontSize=12;fontFamily=Helvetica;html=1;whiteSpace=wrap;labelBorderColor=none;labelBackgroundColor=none;swimlaneFillColor=default;shadow=0;swimlaneLine=1;rounded=1;strokeColor=default;" parent="-N6aTKsf7TU79jUoc55K-84" vertex="1">
          <mxGeometry x="200" width="190" height="30" as="geometry">
            <mxRectangle width="190" height="30" as="alternateBounds" />
          </mxGeometry>
        </mxCell>
        <mxCell id="-N6aTKsf7TU79jUoc55K-88" value="" style="shape=tableRow;horizontal=0;startSize=0;swimlaneHead=0;swimlaneBody=0;fillColor=none;collapsible=0;dropTarget=0;points=[[0,0.5],[1,0.5]];portConstraint=eastwest;top=0;left=0;right=0;bottom=0;fontSize=12;fontFamily=Helvetica;html=1;whiteSpace=wrap;labelBorderColor=none;labelBackgroundColor=none;swimlaneFillColor=default;shadow=0;swimlaneLine=1;rounded=1;strokeColor=default;" parent="-N6aTKsf7TU79jUoc55K-59" vertex="1">
          <mxGeometry y="150" width="390" height="30" as="geometry" />
        </mxCell>
        <mxCell id="-N6aTKsf7TU79jUoc55K-89" value="" style="shape=partialRectangle;connectable=0;fillColor=none;top=0;left=0;bottom=0;right=0;editable=1;overflow=hidden;fontSize=12;fontFamily=Helvetica;html=1;whiteSpace=wrap;labelBorderColor=none;labelBackgroundColor=none;swimlaneFillColor=default;shadow=0;swimlaneLine=1;perimeterSpacing=0;rounded=1;strokeColor=default;" parent="-N6aTKsf7TU79jUoc55K-88" vertex="1">
          <mxGeometry width="40.000000000000455" height="30" as="geometry">
            <mxRectangle width="40.000000000000455" height="30" as="alternateBounds" />
          </mxGeometry>
        </mxCell>
        <mxCell id="-N6aTKsf7TU79jUoc55K-90" value="updated_at" style="shape=partialRectangle;connectable=0;fillColor=none;top=0;left=0;bottom=0;right=0;align=left;spacingLeft=6;overflow=hidden;fontSize=12;fontFamily=Helvetica;html=1;whiteSpace=wrap;labelBorderColor=none;labelBackgroundColor=none;swimlaneFillColor=default;shadow=0;swimlaneLine=1;perimeterSpacing=0;rounded=1;strokeColor=default;" parent="-N6aTKsf7TU79jUoc55K-88" vertex="1">
          <mxGeometry x="40.000000000000455" width="159.99999999999955" height="30" as="geometry">
            <mxRectangle width="159.99999999999955" height="30" as="alternateBounds" />
          </mxGeometry>
        </mxCell>
        <mxCell id="-N6aTKsf7TU79jUoc55K-91" value="Timestamp With Time Zone:N" style="shape=partialRectangle;connectable=0;fillColor=none;top=0;left=0;bottom=0;right=0;align=left;spacingLeft=6;overflow=hidden;fontSize=12;fontFamily=Helvetica;html=1;whiteSpace=wrap;labelBorderColor=none;labelBackgroundColor=none;swimlaneFillColor=default;shadow=0;swimlaneLine=1;perimeterSpacing=0;rounded=1;strokeColor=default;" parent="-N6aTKsf7TU79jUoc55K-88" vertex="1">
          <mxGeometry x="200" width="190" height="30" as="geometry">
            <mxRectangle width="190" height="30" as="alternateBounds" />
          </mxGeometry>
        </mxCell>
        <mxCell id="2" style="shape=tableRow;horizontal=0;startSize=0;swimlaneHead=0;swimlaneBody=0;fillColor=none;collapsible=0;dropTarget=0;points=[[0,0.5],[1,0.5]];portConstraint=eastwest;top=0;left=0;right=0;bottom=0;fontSize=12;fontFamily=Helvetica;html=1;whiteSpace=wrap;labelBorderColor=none;labelBackgroundColor=none;swimlaneFillColor=default;shadow=0;swimlaneLine=1;rounded=1;strokeColor=default;" parent="-N6aTKsf7TU79jUoc55K-59" vertex="1">
          <mxGeometry y="180" width="390" height="30" as="geometry" />
        </mxCell>
        <mxCell id="3" style="shape=partialRectangle;connectable=0;fillColor=none;top=0;left=0;bottom=0;right=0;editable=1;overflow=hidden;fontSize=12;fontFamily=Helvetica;html=1;whiteSpace=wrap;labelBorderColor=none;labelBackgroundColor=none;swimlaneFillColor=default;shadow=0;swimlaneLine=1;perimeterSpacing=0;rounded=1;strokeColor=default;" parent="2" vertex="1">
          <mxGeometry width="40.000000000000455" height="30" as="geometry">
            <mxRectangle width="40.000000000000455" height="30" as="alternateBounds" />
          </mxGeometry>
        </mxCell>
        <mxCell id="4" value="deleted_at" style="shape=partialRectangle;connectable=0;fillColor=none;top=0;left=0;bottom=0;right=0;align=left;spacingLeft=6;overflow=hidden;fontSize=12;fontFamily=Helvetica;html=1;whiteSpace=wrap;labelBorderColor=none;labelBackgroundColor=none;swimlaneFillColor=default;shadow=0;swimlaneLine=1;perimeterSpacing=0;rounded=1;strokeColor=default;" parent="2" vertex="1">
          <mxGeometry x="40.000000000000455" width="159.99999999999955" height="30" as="geometry">
            <mxRectangle width="159.99999999999955" height="30" as="alternateBounds" />
          </mxGeometry>
        </mxCell>
        <mxCell id="5" value="Timestamp With Time Zone:N" style="shape=partialRectangle;connectable=0;fillColor=none;top=0;left=0;bottom=0;right=0;align=left;spacingLeft=6;overflow=hidden;fontSize=12;fontFamily=Helvetica;html=1;whiteSpace=wrap;labelBorderColor=none;labelBackgroundColor=none;swimlaneFillColor=default;shadow=0;swimlaneLine=1;perimeterSpacing=0;rounded=1;strokeColor=default;" parent="2" vertex="1">
          <mxGeometry x="200" width="190" height="30" as="geometry">
            <mxRectangle width="190" height="30" as="alternateBounds" />
          </mxGeometry>
        </mxCell>
        <mxCell id="6" style="shape=tableRow;horizontal=0;startSize=0;swimlaneHead=0;swimlaneBody=0;fillColor=none;collapsible=0;dropTarget=0;points=[[0,0.5],[1,0.5]];portConstraint=eastwest;top=0;left=0;right=0;bottom=0;fontSize=12;fontFamily=Helvetica;html=1;whiteSpace=wrap;labelBorderColor=none;labelBackgroundColor=none;swimlaneFillColor=default;shadow=0;swimlaneLine=1;rounded=1;strokeColor=default;" parent="-N6aTKsf7TU79jUoc55K-59" vertex="1">
          <mxGeometry y="210" width="390" height="30" as="geometry" />
        </mxCell>
        <mxCell id="7" style="shape=partialRectangle;connectable=0;fillColor=none;top=0;left=0;bottom=0;right=0;editable=1;overflow=hidden;fontSize=12;fontFamily=Helvetica;html=1;whiteSpace=wrap;labelBorderColor=none;labelBackgroundColor=none;swimlaneFillColor=default;shadow=0;swimlaneLine=1;perimeterSpacing=0;rounded=1;strokeColor=default;" parent="6" vertex="1">
          <mxGeometry width="40.000000000000455" height="30" as="geometry">
            <mxRectangle width="40.000000000000455" height="30" as="alternateBounds" />
          </mxGeometry>
        </mxCell>
        <mxCell id="8" value="version" style="shape=partialRectangle;connectable=0;fillColor=none;top=0;left=0;bottom=0;right=0;align=left;spacingLeft=6;overflow=hidden;fontSize=12;fontFamily=Helvetica;html=1;whiteSpace=wrap;labelBorderColor=none;labelBackgroundColor=none;swimlaneFillColor=default;shadow=0;swimlaneLine=1;perimeterSpacing=0;rounded=1;strokeColor=default;" parent="6" vertex="1">
          <mxGeometry x="40.000000000000455" width="159.99999999999955" height="30" as="geometry">
            <mxRectangle width="159.99999999999955" height="30" as="alternateBounds" />
          </mxGeometry>
        </mxCell>
        <mxCell id="9" value="Integer" style="shape=partialRectangle;connectable=0;fillColor=none;top=0;left=0;bottom=0;right=0;align=left;spacingLeft=6;overflow=hidden;fontSize=12;fontFamily=Helvetica;html=1;whiteSpace=wrap;labelBorderColor=none;labelBackgroundColor=none;swimlaneFillColor=default;shadow=0;swimlaneLine=1;perimeterSpacing=0;rounded=1;strokeColor=default;" parent="6" vertex="1">
          <mxGeometry x="200" width="190" height="30" as="geometry">
            <mxRectangle width="190" height="30" as="alternateBounds" />
          </mxGeometry>
        </mxCell>
        <mxCell id="54" style="shape=tableRow;horizontal=0;startSize=0;swimlaneHead=0;swimlaneBody=0;fillColor=none;collapsible=0;dropTarget=0;points=[[0,0.5],[1,0.5]];portConstraint=eastwest;top=0;left=0;right=0;bottom=0;fontSize=12;fontFamily=Helvetica;html=1;whiteSpace=wrap;labelBorderColor=none;labelBackgroundColor=none;swimlaneFillColor=default;shadow=0;swimlaneLine=1;rounded=1;strokeColor=default;" parent="-N6aTKsf7TU79jUoc55K-59" vertex="1">
          <mxGeometry y="240" width="390" height="30" as="geometry" />
        </mxCell>
        <mxCell id="55" value="C" style="shape=partialRectangle;connectable=0;fillColor=none;top=0;left=0;bottom=0;right=0;editable=1;overflow=hidden;fontSize=12;fontFamily=Helvetica;html=1;whiteSpace=wrap;labelBorderColor=none;labelBackgroundColor=none;swimlaneFillColor=default;shadow=0;swimlaneLine=1;perimeterSpacing=0;rounded=1;strokeColor=default;" parent="54" vertex="1">
          <mxGeometry width="40.000000000000455" height="30" as="geometry">
            <mxRectangle width="40.000000000000455" height="30" as="alternateBounds" />
          </mxGeometry>
        </mxCell>
        <mxCell id="56" value="users_email_check" style="shape=partialRectangle;connectable=0;fillColor=none;top=0;left=0;bottom=0;right=0;align=left;spacingLeft=6;overflow=hidden;fontSize=12;fontFamily=Helvetica;html=1;whiteSpace=wrap;labelBorderColor=none;labelBackgroundColor=none;swimlaneFillColor=default;shadow=0;swimlaneLine=1;perimeterSpacing=0;rounded=1;strokeColor=default;" parent="54" vertex="1">
          <mxGeometry x="40.000000000000455" width="159.99999999999955" height="30" as="geometry">
            <mxRectangle width="159.99999999999955" height="30" as="alternateBounds" />
          </mxGeometry>
        </mxCell>
        <mxCell id="57" value="3 &amp;lt;= Length(email) &amp;lt;= 80" style="shape=partialRectangle;connectable=0;fillColor=none;top=0;left=0;bottom=0;right=0;align=left;spacingLeft=6;overflow=hidden;fontSize=12;fontFamily=Helvetica;html=1;whiteSpace=wrap;labelBorderColor=none;labelBackgroundColor=none;swimlaneFillColor=default;shadow=0;swimlaneLine=1;perimeterSpacing=0;rounded=1;strokeColor=default;" parent="54" vertex="1">
          <mxGeometry x="200" width="190" height="30" as="geometry">
            <mxRectangle width="190" height="30" as="alternateBounds" />
          </mxGeometry>
        </mxCell>
        <mxCell id="-N6aTKsf7TU79jUoc55K-385" value="&lt;b&gt;refresh_tokens&lt;/b&gt;" style="shape=table;startSize=30;container=1;collapsible=1;childLayout=tableLayout;fixedRows=1;rowLines=0;fontStyle=0;align=center;resizeLast=1;fontSize=12;fontFamily=Helvetica;html=1;whiteSpace=wrap;labelBorderColor=none;labelBackgroundColor=none;shadow=0;spacing=2;swimlaneFillColor=none;rounded=1;swimlaneLine=1;fillColor=none;strokeColor=default;" parent="1" vertex="1">
          <mxGeometry x="840" y="20" width="320" height="270" as="geometry" />
        </mxCell>
        <mxCell id="-N6aTKsf7TU79jUoc55K-386" value="" style="shape=tableRow;horizontal=0;startSize=0;swimlaneHead=0;swimlaneBody=0;fillColor=none;collapsible=0;dropTarget=0;points=[[0,0.5],[1,0.5]];portConstraint=eastwest;top=0;left=0;right=0;bottom=1;fontSize=12;fontFamily=Helvetica;html=1;whiteSpace=wrap;labelBorderColor=none;labelBackgroundColor=none;swimlaneFillColor=default;shadow=0;swimlaneLine=1;rounded=1;strokeColor=default;" parent="-N6aTKsf7TU79jUoc55K-385" vertex="1">
          <mxGeometry y="30" width="320" height="30" as="geometry" />
        </mxCell>
        <mxCell id="-N6aTKsf7TU79jUoc55K-387" value="PK" style="shape=partialRectangle;connectable=0;fillColor=none;top=0;left=0;bottom=0;right=0;fontStyle=1;overflow=hidden;fontSize=12;fontFamily=Helvetica;html=1;whiteSpace=wrap;labelBorderColor=none;labelBackgroundColor=none;swimlaneFillColor=default;shadow=0;swimlaneLine=1;rounded=1;strokeColor=default;" parent="-N6aTKsf7TU79jUoc55K-386" vertex="1">
          <mxGeometry width="30" height="30" as="geometry">
            <mxRectangle width="30" height="30" as="alternateBounds" />
          </mxGeometry>
        </mxCell>
        <mxCell id="-N6aTKsf7TU79jUoc55K-388" value="id" style="shape=partialRectangle;connectable=0;fillColor=none;top=0;left=0;bottom=0;right=0;align=left;spacingLeft=6;fontStyle=5;overflow=hidden;fontSize=12;fontFamily=Helvetica;html=1;whiteSpace=wrap;labelBorderColor=none;labelBackgroundColor=none;swimlaneFillColor=default;shadow=0;swimlaneLine=1;rounded=1;strokeColor=default;" parent="-N6aTKsf7TU79jUoc55K-386" vertex="1">
          <mxGeometry x="30" width="100" height="30" as="geometry">
            <mxRectangle width="100" height="30" as="alternateBounds" />
          </mxGeometry>
        </mxCell>
        <mxCell id="-N6aTKsf7TU79jUoc55K-389" value="UUid:I:U" style="shape=partialRectangle;connectable=0;fillColor=none;top=0;left=0;bottom=0;right=0;align=left;spacingLeft=6;fontStyle=5;overflow=hidden;fontSize=12;fontFamily=Helvetica;html=1;whiteSpace=wrap;labelBorderColor=none;labelBackgroundColor=none;swimlaneFillColor=default;shadow=0;swimlaneLine=1;rounded=1;strokeColor=default;" parent="-N6aTKsf7TU79jUoc55K-386" vertex="1">
          <mxGeometry x="130" width="190" height="30" as="geometry">
            <mxRectangle width="190" height="30" as="alternateBounds" />
          </mxGeometry>
        </mxCell>
        <mxCell id="-N6aTKsf7TU79jUoc55K-390" value="" style="shape=tableRow;horizontal=0;startSize=0;swimlaneHead=0;swimlaneBody=0;fillColor=none;collapsible=0;dropTarget=0;points=[[0,0.5],[1,0.5]];portConstraint=eastwest;top=0;left=0;right=0;bottom=0;fontSize=12;fontFamily=Helvetica;html=1;whiteSpace=wrap;labelBorderColor=none;labelBackgroundColor=none;swimlaneFillColor=default;shadow=0;swimlaneLine=1;rounded=1;strokeColor=default;" parent="-N6aTKsf7TU79jUoc55K-385" vertex="1">
          <mxGeometry y="60" width="320" height="30" as="geometry" />
        </mxCell>
        <mxCell id="-N6aTKsf7TU79jUoc55K-391" value="FK" style="shape=partialRectangle;connectable=0;fillColor=none;top=0;left=0;bottom=0;right=0;editable=1;overflow=hidden;fontSize=12;fontFamily=Helvetica;html=1;whiteSpace=wrap;labelBorderColor=none;labelBackgroundColor=none;swimlaneFillColor=default;shadow=0;swimlaneLine=1;rounded=1;strokeColor=default;" parent="-N6aTKsf7TU79jUoc55K-390" vertex="1">
          <mxGeometry width="30" height="30" as="geometry">
            <mxRectangle width="30" height="30" as="alternateBounds" />
          </mxGeometry>
        </mxCell>
        <mxCell id="-N6aTKsf7TU79jUoc55K-392" value="user_id" style="shape=partialRectangle;connectable=0;fillColor=none;top=0;left=0;bottom=0;right=0;align=left;spacingLeft=6;overflow=hidden;fontSize=12;fontFamily=Helvetica;html=1;whiteSpace=wrap;labelBorderColor=none;labelBackgroundColor=none;swimlaneFillColor=default;shadow=0;swimlaneLine=1;rounded=1;strokeColor=default;" parent="-N6aTKsf7TU79jUoc55K-390" vertex="1">
          <mxGeometry x="30" width="100" height="30" as="geometry">
            <mxRectangle width="100" height="30" as="alternateBounds" />
          </mxGeometry>
        </mxCell>
        <mxCell id="-N6aTKsf7TU79jUoc55K-393" value="UUid" style="shape=partialRectangle;connectable=0;fillColor=none;top=0;left=0;bottom=0;right=0;align=left;spacingLeft=6;overflow=hidden;fontSize=12;fontFamily=Helvetica;html=1;whiteSpace=wrap;labelBorderColor=none;labelBackgroundColor=none;swimlaneFillColor=default;shadow=0;swimlaneLine=1;rounded=1;strokeColor=default;" parent="-N6aTKsf7TU79jUoc55K-390" vertex="1">
          <mxGeometry x="130" width="190" height="30" as="geometry">
            <mxRectangle width="190" height="30" as="alternateBounds" />
          </mxGeometry>
        </mxCell>
        <mxCell id="-N6aTKsf7TU79jUoc55K-394" value="" style="shape=tableRow;horizontal=0;startSize=0;swimlaneHead=0;swimlaneBody=0;fillColor=none;collapsible=0;dropTarget=0;points=[[0,0.5],[1,0.5]];portConstraint=eastwest;top=0;left=0;right=0;bottom=0;fontSize=12;fontFamily=Helvetica;html=1;whiteSpace=wrap;labelBorderColor=none;labelBackgroundColor=none;swimlaneFillColor=default;shadow=0;swimlaneLine=1;rounded=1;strokeColor=default;" parent="-N6aTKsf7TU79jUoc55K-385" vertex="1">
          <mxGeometry y="90" width="320" height="30" as="geometry" />
        </mxCell>
        <mxCell id="-N6aTKsf7TU79jUoc55K-395" value="" style="shape=partialRectangle;connectable=0;fillColor=none;top=0;left=0;bottom=0;right=0;editable=1;overflow=hidden;fontSize=12;fontFamily=Helvetica;html=1;whiteSpace=wrap;labelBorderColor=none;labelBackgroundColor=none;swimlaneFillColor=default;shadow=0;swimlaneLine=1;rounded=1;strokeColor=default;" parent="-N6aTKsf7TU79jUoc55K-394" vertex="1">
          <mxGeometry width="30" height="30" as="geometry">
            <mxRectangle width="30" height="30" as="alternateBounds" />
          </mxGeometry>
        </mxCell>
        <mxCell id="-N6aTKsf7TU79jUoc55K-396" value="token_value" style="shape=partialRectangle;connectable=0;fillColor=none;top=0;left=0;bottom=0;right=0;align=left;spacingLeft=6;overflow=hidden;fontSize=12;fontFamily=Helvetica;html=1;whiteSpace=wrap;labelBorderColor=none;labelBackgroundColor=none;swimlaneFillColor=default;shadow=0;swimlaneLine=1;rounded=1;strokeColor=default;" parent="-N6aTKsf7TU79jUoc55K-394" vertex="1">
          <mxGeometry x="30" width="100" height="30" as="geometry">
            <mxRectangle width="100" height="30" as="alternateBounds" />
          </mxGeometry>
        </mxCell>
        <mxCell id="-N6aTKsf7TU79jUoc55K-397" value="Text" style="shape=partialRectangle;connectable=0;fillColor=none;top=0;left=0;bottom=0;right=0;align=left;spacingLeft=6;overflow=hidden;fontSize=12;fontFamily=Helvetica;html=1;whiteSpace=wrap;labelBorderColor=none;labelBackgroundColor=none;swimlaneFillColor=default;shadow=0;swimlaneLine=1;rounded=1;strokeColor=default;" parent="-N6aTKsf7TU79jUoc55K-394" vertex="1">
          <mxGeometry x="130" width="190" height="30" as="geometry">
            <mxRectangle width="190" height="30" as="alternateBounds" />
          </mxGeometry>
        </mxCell>
        <mxCell id="-N6aTKsf7TU79jUoc55K-402" value="" style="shape=tableRow;horizontal=0;startSize=0;swimlaneHead=0;swimlaneBody=0;fillColor=none;collapsible=0;dropTarget=0;points=[[0,0.5],[1,0.5]];portConstraint=eastwest;top=0;left=0;right=0;bottom=0;fontSize=12;fontFamily=Helvetica;html=1;whiteSpace=wrap;labelBorderColor=none;labelBackgroundColor=none;swimlaneFillColor=default;shadow=0;swimlaneLine=1;rounded=1;strokeColor=default;" parent="-N6aTKsf7TU79jUoc55K-385" vertex="1">
          <mxGeometry y="120" width="320" height="30" as="geometry" />
        </mxCell>
        <mxCell id="-N6aTKsf7TU79jUoc55K-403" value="" style="shape=partialRectangle;connectable=0;fillColor=none;top=0;left=0;bottom=0;right=0;editable=1;overflow=hidden;fontSize=12;fontFamily=Helvetica;html=1;whiteSpace=wrap;labelBorderColor=none;labelBackgroundColor=none;swimlaneFillColor=default;shadow=0;swimlaneLine=1;rounded=1;strokeColor=default;" parent="-N6aTKsf7TU79jUoc55K-402" vertex="1">
          <mxGeometry width="30" height="30" as="geometry">
            <mxRectangle width="30" height="30" as="alternateBounds" />
          </mxGeometry>
        </mxCell>
        <mxCell id="-N6aTKsf7TU79jUoc55K-404" value="expiration_at" style="shape=partialRectangle;connectable=0;fillColor=none;top=0;left=0;bottom=0;right=0;align=left;spacingLeft=6;overflow=hidden;fontSize=12;fontFamily=Helvetica;html=1;whiteSpace=wrap;labelBorderColor=none;labelBackgroundColor=none;swimlaneFillColor=default;shadow=0;swimlaneLine=1;rounded=1;strokeColor=default;" parent="-N6aTKsf7TU79jUoc55K-402" vertex="1">
          <mxGeometry x="30" width="100" height="30" as="geometry">
            <mxRectangle width="100" height="30" as="alternateBounds" />
          </mxGeometry>
        </mxCell>
        <mxCell id="-N6aTKsf7TU79jUoc55K-405" value="Timestamp With Time Zone" style="shape=partialRectangle;connectable=0;fillColor=none;top=0;left=0;bottom=0;right=0;align=left;spacingLeft=6;overflow=hidden;fontSize=12;fontFamily=Helvetica;html=1;whiteSpace=wrap;labelBorderColor=none;labelBackgroundColor=none;swimlaneFillColor=default;shadow=0;swimlaneLine=1;rounded=1;strokeColor=default;" parent="-N6aTKsf7TU79jUoc55K-402" vertex="1">
          <mxGeometry x="130" width="190" height="30" as="geometry">
            <mxRectangle width="190" height="30" as="alternateBounds" />
          </mxGeometry>
        </mxCell>
        <mxCell id="-N6aTKsf7TU79jUoc55K-406" style="shape=tableRow;horizontal=0;startSize=0;swimlaneHead=0;swimlaneBody=0;fillColor=none;collapsible=0;dropTarget=0;points=[[0,0.5],[1,0.5]];portConstraint=eastwest;top=0;left=0;right=0;bottom=0;fontSize=12;fontFamily=Helvetica;html=1;whiteSpace=wrap;labelBorderColor=none;labelBackgroundColor=none;swimlaneFillColor=default;shadow=0;swimlaneLine=1;rounded=1;strokeColor=default;" parent="-N6aTKsf7TU79jUoc55K-385" vertex="1">
          <mxGeometry y="150" width="320" height="30" as="geometry" />
        </mxCell>
        <mxCell id="-N6aTKsf7TU79jUoc55K-407" style="shape=partialRectangle;connectable=0;fillColor=none;top=0;left=0;bottom=0;right=0;editable=1;overflow=hidden;fontSize=12;fontFamily=Helvetica;html=1;whiteSpace=wrap;labelBorderColor=none;labelBackgroundColor=none;swimlaneFillColor=default;shadow=0;swimlaneLine=1;perimeterSpacing=0;rounded=1;strokeColor=default;" parent="-N6aTKsf7TU79jUoc55K-406" vertex="1">
          <mxGeometry width="30" height="30" as="geometry">
            <mxRectangle width="30" height="30" as="alternateBounds" />
          </mxGeometry>
        </mxCell>
        <mxCell id="-N6aTKsf7TU79jUoc55K-408" value="created_at" style="shape=partialRectangle;connectable=0;fillColor=none;top=0;left=0;bottom=0;right=0;align=left;spacingLeft=6;overflow=hidden;fontSize=12;fontFamily=Helvetica;html=1;whiteSpace=wrap;labelBorderColor=none;labelBackgroundColor=none;swimlaneFillColor=default;shadow=0;swimlaneLine=1;perimeterSpacing=0;rounded=1;strokeColor=default;" parent="-N6aTKsf7TU79jUoc55K-406" vertex="1">
          <mxGeometry x="30" width="100" height="30" as="geometry">
            <mxRectangle width="100" height="30" as="alternateBounds" />
          </mxGeometry>
        </mxCell>
        <mxCell id="-N6aTKsf7TU79jUoc55K-409" value="Timestamp With Time Zone" style="shape=partialRectangle;connectable=0;fillColor=none;top=0;left=0;bottom=0;right=0;align=left;spacingLeft=6;overflow=hidden;fontSize=12;fontFamily=Helvetica;html=1;whiteSpace=wrap;labelBorderColor=none;labelBackgroundColor=none;swimlaneFillColor=default;shadow=0;swimlaneLine=1;perimeterSpacing=0;rounded=1;strokeColor=default;" parent="-N6aTKsf7TU79jUoc55K-406" vertex="1">
          <mxGeometry x="130" width="190" height="30" as="geometry">
            <mxRectangle width="190" height="30" as="alternateBounds" />
          </mxGeometry>
        </mxCell>
        <mxCell id="-N6aTKsf7TU79jUoc55K-410" style="shape=tableRow;horizontal=0;startSize=0;swimlaneHead=0;swimlaneBody=0;fillColor=none;collapsible=0;dropTarget=0;points=[[0,0.5],[1,0.5]];portConstraint=eastwest;top=0;left=0;right=0;bottom=0;fontSize=12;fontFamily=Helvetica;html=1;whiteSpace=wrap;labelBorderColor=none;labelBackgroundColor=none;swimlaneFillColor=default;shadow=0;swimlaneLine=1;rounded=1;strokeColor=default;" parent="-N6aTKsf7TU79jUoc55K-385" vertex="1">
          <mxGeometry y="180" width="320" height="30" as="geometry" />
        </mxCell>
        <mxCell id="-N6aTKsf7TU79jUoc55K-411" style="shape=partialRectangle;connectable=0;fillColor=none;top=0;left=0;bottom=0;right=0;editable=1;overflow=hidden;fontSize=12;fontFamily=Helvetica;html=1;whiteSpace=wrap;labelBorderColor=none;labelBackgroundColor=none;swimlaneFillColor=default;shadow=0;swimlaneLine=1;perimeterSpacing=0;rounded=1;strokeColor=default;" parent="-N6aTKsf7TU79jUoc55K-410" vertex="1">
          <mxGeometry width="30" height="30" as="geometry">
            <mxRectangle width="30" height="30" as="alternateBounds" />
          </mxGeometry>
        </mxCell>
        <mxCell id="-N6aTKsf7TU79jUoc55K-412" value="updated_at" style="shape=partialRectangle;connectable=0;fillColor=none;top=0;left=0;bottom=0;right=0;align=left;spacingLeft=6;overflow=hidden;fontSize=12;fontFamily=Helvetica;html=1;whiteSpace=wrap;labelBorderColor=none;labelBackgroundColor=none;swimlaneFillColor=default;shadow=0;swimlaneLine=1;perimeterSpacing=0;rounded=1;strokeColor=default;" parent="-N6aTKsf7TU79jUoc55K-410" vertex="1">
          <mxGeometry x="30" width="100" height="30" as="geometry">
            <mxRectangle width="100" height="30" as="alternateBounds" />
          </mxGeometry>
        </mxCell>
        <mxCell id="-N6aTKsf7TU79jUoc55K-413" value="Timestamp With Time Zone:N" style="shape=partialRectangle;connectable=0;fillColor=none;top=0;left=0;bottom=0;right=0;align=left;spacingLeft=6;overflow=hidden;fontSize=12;fontFamily=Helvetica;html=1;whiteSpace=wrap;labelBorderColor=none;labelBackgroundColor=none;swimlaneFillColor=default;shadow=0;swimlaneLine=1;perimeterSpacing=0;rounded=1;strokeColor=default;" parent="-N6aTKsf7TU79jUoc55K-410" vertex="1">
          <mxGeometry x="130" width="190" height="30" as="geometry">
            <mxRectangle width="190" height="30" as="alternateBounds" />
          </mxGeometry>
        </mxCell>
        <mxCell id="26" style="shape=tableRow;horizontal=0;startSize=0;swimlaneHead=0;swimlaneBody=0;fillColor=none;collapsible=0;dropTarget=0;points=[[0,0.5],[1,0.5]];portConstraint=eastwest;top=0;left=0;right=0;bottom=0;fontSize=12;fontFamily=Helvetica;html=1;whiteSpace=wrap;labelBorderColor=none;labelBackgroundColor=none;swimlaneFillColor=default;shadow=0;swimlaneLine=1;rounded=1;strokeColor=default;" parent="-N6aTKsf7TU79jUoc55K-385" vertex="1">
          <mxGeometry y="210" width="320" height="30" as="geometry" />
        </mxCell>
        <mxCell id="27" style="shape=partialRectangle;connectable=0;fillColor=none;top=0;left=0;bottom=0;right=0;editable=1;overflow=hidden;fontSize=12;fontFamily=Helvetica;html=1;whiteSpace=wrap;labelBorderColor=none;labelBackgroundColor=none;swimlaneFillColor=default;shadow=0;swimlaneLine=1;perimeterSpacing=0;rounded=1;strokeColor=default;" parent="26" vertex="1">
          <mxGeometry width="30" height="30" as="geometry">
            <mxRectangle width="30" height="30" as="alternateBounds" />
          </mxGeometry>
        </mxCell>
        <mxCell id="28" value="deleted_at" style="shape=partialRectangle;connectable=0;fillColor=none;top=0;left=0;bottom=0;right=0;align=left;spacingLeft=6;overflow=hidden;fontSize=12;fontFamily=Helvetica;html=1;whiteSpace=wrap;labelBorderColor=none;labelBackgroundColor=none;swimlaneFillColor=default;shadow=0;swimlaneLine=1;perimeterSpacing=0;rounded=1;strokeColor=default;" parent="26" vertex="1">
          <mxGeometry x="30" width="100" height="30" as="geometry">
            <mxRectangle width="100" height="30" as="alternateBounds" />
          </mxGeometry>
        </mxCell>
        <mxCell id="29" value="Timestamp With Time Zone:N" style="shape=partialRectangle;connectable=0;fillColor=none;top=0;left=0;bottom=0;right=0;align=left;spacingLeft=6;overflow=hidden;fontSize=12;fontFamily=Helvetica;html=1;whiteSpace=wrap;labelBorderColor=none;labelBackgroundColor=none;swimlaneFillColor=default;shadow=0;swimlaneLine=1;perimeterSpacing=0;rounded=1;strokeColor=default;" parent="26" vertex="1">
          <mxGeometry x="130" width="190" height="30" as="geometry">
            <mxRectangle width="190" height="30" as="alternateBounds" />
          </mxGeometry>
        </mxCell>
        <mxCell id="30" style="shape=tableRow;horizontal=0;startSize=0;swimlaneHead=0;swimlaneBody=0;fillColor=none;collapsible=0;dropTarget=0;points=[[0,0.5],[1,0.5]];portConstraint=eastwest;top=0;left=0;right=0;bottom=0;fontSize=12;fontFamily=Helvetica;html=1;whiteSpace=wrap;labelBorderColor=none;labelBackgroundColor=none;swimlaneFillColor=default;shadow=0;swimlaneLine=1;rounded=1;strokeColor=default;" parent="-N6aTKsf7TU79jUoc55K-385" vertex="1">
          <mxGeometry y="240" width="320" height="30" as="geometry" />
        </mxCell>
        <mxCell id="31" style="shape=partialRectangle;connectable=0;fillColor=none;top=0;left=0;bottom=0;right=0;editable=1;overflow=hidden;fontSize=12;fontFamily=Helvetica;html=1;whiteSpace=wrap;labelBorderColor=none;labelBackgroundColor=none;swimlaneFillColor=default;shadow=0;swimlaneLine=1;perimeterSpacing=0;rounded=1;strokeColor=default;" parent="30" vertex="1">
          <mxGeometry width="30" height="30" as="geometry">
            <mxRectangle width="30" height="30" as="alternateBounds" />
          </mxGeometry>
        </mxCell>
        <mxCell id="32" value="version" style="shape=partialRectangle;connectable=0;fillColor=none;top=0;left=0;bottom=0;right=0;align=left;spacingLeft=6;overflow=hidden;fontSize=12;fontFamily=Helvetica;html=1;whiteSpace=wrap;labelBorderColor=none;labelBackgroundColor=none;swimlaneFillColor=default;shadow=0;swimlaneLine=1;perimeterSpacing=0;rounded=1;strokeColor=default;" parent="30" vertex="1">
          <mxGeometry x="30" width="100" height="30" as="geometry">
            <mxRectangle width="100" height="30" as="alternateBounds" />
          </mxGeometry>
        </mxCell>
        <mxCell id="33" value="Integer" style="shape=partialRectangle;connectable=0;fillColor=none;top=0;left=0;bottom=0;right=0;align=left;spacingLeft=6;overflow=hidden;fontSize=12;fontFamily=Helvetica;html=1;whiteSpace=wrap;labelBorderColor=none;labelBackgroundColor=none;swimlaneFillColor=default;shadow=0;swimlaneLine=1;perimeterSpacing=0;rounded=1;strokeColor=default;" parent="30" vertex="1">
          <mxGeometry x="130" width="190" height="30" as="geometry">
            <mxRectangle width="190" height="30" as="alternateBounds" />
          </mxGeometry>
        </mxCell>
        <mxCell id="-N6aTKsf7TU79jUoc55K-414" style="edgeStyle=elbowEdgeStyle;rounded=1;orthogonalLoop=1;jettySize=auto;html=1;exitX=0;exitY=0.5;exitDx=0;exitDy=0;entryX=1;entryY=0.5;entryDx=0;entryDy=0;fontSize=12;startSize=8;endSize=8;endArrow=ERmandOne;endFill=0;startArrow=ERoneToMany;startFill=0;fillColor=none;strokeColor=default;fontFamily=Helvetica;" parent="1" source="-N6aTKsf7TU79jUoc55K-390" target="-N6aTKsf7TU79jUoc55K-60" edge="1">
          <mxGeometry relative="1" as="geometry" />
        </mxCell>
        <mxCell id="-N6aTKsf7TU79jUoc55K-449" value="&lt;b&gt;access_tokens&lt;/b&gt;" style="shape=table;startSize=30;container=1;collapsible=1;childLayout=tableLayout;fixedRows=1;rowLines=0;fontStyle=0;align=center;resizeLast=1;fontSize=12;fontFamily=Helvetica;html=1;whiteSpace=wrap;labelBorderColor=none;labelBackgroundColor=none;shadow=0;spacing=2;swimlaneFillColor=none;rounded=1;swimlaneLine=1;fillColor=none;strokeColor=default;" parent="1" vertex="1">
          <mxGeometry x="10" y="20" width="320" height="270" as="geometry" />
        </mxCell>
        <mxCell id="-N6aTKsf7TU79jUoc55K-450" value="" style="shape=tableRow;horizontal=0;startSize=0;swimlaneHead=0;swimlaneBody=0;fillColor=none;collapsible=0;dropTarget=0;points=[[0,0.5],[1,0.5]];portConstraint=eastwest;top=0;left=0;right=0;bottom=1;fontSize=12;fontFamily=Helvetica;html=1;whiteSpace=wrap;labelBorderColor=none;labelBackgroundColor=none;swimlaneFillColor=default;shadow=0;swimlaneLine=1;rounded=1;strokeColor=default;" parent="-N6aTKsf7TU79jUoc55K-449" vertex="1">
          <mxGeometry y="30" width="320" height="30" as="geometry" />
        </mxCell>
        <mxCell id="-N6aTKsf7TU79jUoc55K-451" value="PK" style="shape=partialRectangle;connectable=0;fillColor=none;top=0;left=0;bottom=0;right=0;fontStyle=1;overflow=hidden;fontSize=12;fontFamily=Helvetica;html=1;whiteSpace=wrap;labelBorderColor=none;labelBackgroundColor=none;swimlaneFillColor=default;shadow=0;swimlaneLine=1;rounded=1;strokeColor=default;" parent="-N6aTKsf7TU79jUoc55K-450" vertex="1">
          <mxGeometry width="30" height="30" as="geometry">
            <mxRectangle width="30" height="30" as="alternateBounds" />
          </mxGeometry>
        </mxCell>
        <mxCell id="-N6aTKsf7TU79jUoc55K-452" value="id" style="shape=partialRectangle;connectable=0;fillColor=none;top=0;left=0;bottom=0;right=0;align=left;spacingLeft=6;fontStyle=5;overflow=hidden;fontSize=12;fontFamily=Helvetica;html=1;whiteSpace=wrap;labelBorderColor=none;labelBackgroundColor=none;swimlaneFillColor=default;shadow=0;swimlaneLine=1;rounded=1;strokeColor=default;" parent="-N6aTKsf7TU79jUoc55K-450" vertex="1">
          <mxGeometry x="30" width="100" height="30" as="geometry">
            <mxRectangle width="100" height="30" as="alternateBounds" />
          </mxGeometry>
        </mxCell>
        <mxCell id="-N6aTKsf7TU79jUoc55K-453" value="UUid:I:U" style="shape=partialRectangle;connectable=0;fillColor=none;top=0;left=0;bottom=0;right=0;align=left;spacingLeft=6;fontStyle=5;overflow=hidden;fontSize=12;fontFamily=Helvetica;html=1;whiteSpace=wrap;labelBorderColor=none;labelBackgroundColor=none;swimlaneFillColor=default;shadow=0;swimlaneLine=1;rounded=1;strokeColor=default;" parent="-N6aTKsf7TU79jUoc55K-450" vertex="1">
          <mxGeometry x="130" width="190" height="30" as="geometry">
            <mxRectangle width="190" height="30" as="alternateBounds" />
          </mxGeometry>
        </mxCell>
        <mxCell id="-N6aTKsf7TU79jUoc55K-454" value="" style="shape=tableRow;horizontal=0;startSize=0;swimlaneHead=0;swimlaneBody=0;fillColor=none;collapsible=0;dropTarget=0;points=[[0,0.5],[1,0.5]];portConstraint=eastwest;top=0;left=0;right=0;bottom=0;fontSize=12;fontFamily=Helvetica;html=1;whiteSpace=wrap;labelBorderColor=none;labelBackgroundColor=none;swimlaneFillColor=default;shadow=0;swimlaneLine=1;rounded=1;strokeColor=default;" parent="-N6aTKsf7TU79jUoc55K-449" vertex="1">
          <mxGeometry y="60" width="320" height="30" as="geometry" />
        </mxCell>
        <mxCell id="-N6aTKsf7TU79jUoc55K-455" value="FK" style="shape=partialRectangle;connectable=0;fillColor=none;top=0;left=0;bottom=0;right=0;editable=1;overflow=hidden;fontSize=12;fontFamily=Helvetica;html=1;whiteSpace=wrap;labelBorderColor=none;labelBackgroundColor=none;swimlaneFillColor=default;shadow=0;swimlaneLine=1;rounded=1;strokeColor=default;" parent="-N6aTKsf7TU79jUoc55K-454" vertex="1">
          <mxGeometry width="30" height="30" as="geometry">
            <mxRectangle width="30" height="30" as="alternateBounds" />
          </mxGeometry>
        </mxCell>
        <mxCell id="-N6aTKsf7TU79jUoc55K-456" value="user_id" style="shape=partialRectangle;connectable=0;fillColor=none;top=0;left=0;bottom=0;right=0;align=left;spacingLeft=6;overflow=hidden;fontSize=12;fontFamily=Helvetica;html=1;whiteSpace=wrap;labelBorderColor=none;labelBackgroundColor=none;swimlaneFillColor=default;shadow=0;swimlaneLine=1;rounded=1;strokeColor=default;" parent="-N6aTKsf7TU79jUoc55K-454" vertex="1">
          <mxGeometry x="30" width="100" height="30" as="geometry">
            <mxRectangle width="100" height="30" as="alternateBounds" />
          </mxGeometry>
        </mxCell>
        <mxCell id="-N6aTKsf7TU79jUoc55K-457" value="UUid" style="shape=partialRectangle;connectable=0;fillColor=none;top=0;left=0;bottom=0;right=0;align=left;spacingLeft=6;overflow=hidden;fontSize=12;fontFamily=Helvetica;html=1;whiteSpace=wrap;labelBorderColor=none;labelBackgroundColor=none;swimlaneFillColor=default;shadow=0;swimlaneLine=1;rounded=1;strokeColor=default;" parent="-N6aTKsf7TU79jUoc55K-454" vertex="1">
          <mxGeometry x="130" width="190" height="30" as="geometry">
            <mxRectangle width="190" height="30" as="alternateBounds" />
          </mxGeometry>
        </mxCell>
        <mxCell id="-N6aTKsf7TU79jUoc55K-462" value="" style="shape=tableRow;horizontal=0;startSize=0;swimlaneHead=0;swimlaneBody=0;fillColor=none;collapsible=0;dropTarget=0;points=[[0,0.5],[1,0.5]];portConstraint=eastwest;top=0;left=0;right=0;bottom=0;fontSize=12;fontFamily=Helvetica;html=1;whiteSpace=wrap;labelBorderColor=none;labelBackgroundColor=none;swimlaneFillColor=default;shadow=0;swimlaneLine=1;rounded=1;strokeColor=default;" parent="-N6aTKsf7TU79jUoc55K-449" vertex="1">
          <mxGeometry y="90" width="320" height="30" as="geometry" />
        </mxCell>
        <mxCell id="-N6aTKsf7TU79jUoc55K-463" value="" style="shape=partialRectangle;connectable=0;fillColor=none;top=0;left=0;bottom=0;right=0;editable=1;overflow=hidden;fontSize=12;fontFamily=Helvetica;html=1;whiteSpace=wrap;labelBorderColor=none;labelBackgroundColor=none;swimlaneFillColor=default;shadow=0;swimlaneLine=1;rounded=1;strokeColor=default;" parent="-N6aTKsf7TU79jUoc55K-462" vertex="1">
          <mxGeometry width="30" height="30" as="geometry">
            <mxRectangle width="30" height="30" as="alternateBounds" />
          </mxGeometry>
        </mxCell>
        <mxCell id="-N6aTKsf7TU79jUoc55K-464" value="token_value" style="shape=partialRectangle;connectable=0;fillColor=none;top=0;left=0;bottom=0;right=0;align=left;spacingLeft=6;overflow=hidden;fontSize=12;fontFamily=Helvetica;html=1;whiteSpace=wrap;labelBorderColor=none;labelBackgroundColor=none;swimlaneFillColor=default;shadow=0;swimlaneLine=1;rounded=1;strokeColor=default;" parent="-N6aTKsf7TU79jUoc55K-462" vertex="1">
          <mxGeometry x="30" width="100" height="30" as="geometry">
            <mxRectangle width="100" height="30" as="alternateBounds" />
          </mxGeometry>
        </mxCell>
        <mxCell id="-N6aTKsf7TU79jUoc55K-465" value="Text" style="shape=partialRectangle;connectable=0;fillColor=none;top=0;left=0;bottom=0;right=0;align=left;spacingLeft=6;overflow=hidden;fontSize=12;fontFamily=Helvetica;html=1;whiteSpace=wrap;labelBorderColor=none;labelBackgroundColor=none;swimlaneFillColor=default;shadow=0;swimlaneLine=1;rounded=1;strokeColor=default;" parent="-N6aTKsf7TU79jUoc55K-462" vertex="1">
          <mxGeometry x="130" width="190" height="30" as="geometry">
            <mxRectangle width="190" height="30" as="alternateBounds" />
          </mxGeometry>
        </mxCell>
        <mxCell id="-N6aTKsf7TU79jUoc55K-470" value="" style="shape=tableRow;horizontal=0;startSize=0;swimlaneHead=0;swimlaneBody=0;fillColor=none;collapsible=0;dropTarget=0;points=[[0,0.5],[1,0.5]];portConstraint=eastwest;top=0;left=0;right=0;bottom=0;fontSize=12;fontFamily=Helvetica;html=1;whiteSpace=wrap;labelBorderColor=none;labelBackgroundColor=none;swimlaneFillColor=default;shadow=0;swimlaneLine=1;rounded=1;strokeColor=default;" parent="-N6aTKsf7TU79jUoc55K-449" vertex="1">
          <mxGeometry y="120" width="320" height="30" as="geometry" />
        </mxCell>
        <mxCell id="-N6aTKsf7TU79jUoc55K-471" value="" style="shape=partialRectangle;connectable=0;fillColor=none;top=0;left=0;bottom=0;right=0;editable=1;overflow=hidden;fontSize=12;fontFamily=Helvetica;html=1;whiteSpace=wrap;labelBorderColor=none;labelBackgroundColor=none;swimlaneFillColor=default;shadow=0;swimlaneLine=1;rounded=1;strokeColor=default;" parent="-N6aTKsf7TU79jUoc55K-470" vertex="1">
          <mxGeometry width="30" height="30" as="geometry">
            <mxRectangle width="30" height="30" as="alternateBounds" />
          </mxGeometry>
        </mxCell>
        <mxCell id="-N6aTKsf7TU79jUoc55K-472" value="expiration_at" style="shape=partialRectangle;connectable=0;fillColor=none;top=0;left=0;bottom=0;right=0;align=left;spacingLeft=6;overflow=hidden;fontSize=12;fontFamily=Helvetica;html=1;whiteSpace=wrap;labelBorderColor=none;labelBackgroundColor=none;swimlaneFillColor=default;shadow=0;swimlaneLine=1;rounded=1;strokeColor=default;" parent="-N6aTKsf7TU79jUoc55K-470" vertex="1">
          <mxGeometry x="30" width="100" height="30" as="geometry">
            <mxRectangle width="100" height="30" as="alternateBounds" />
          </mxGeometry>
        </mxCell>
        <mxCell id="-N6aTKsf7TU79jUoc55K-473" value="Timestamp With Time Zone" style="shape=partialRectangle;connectable=0;fillColor=none;top=0;left=0;bottom=0;right=0;align=left;spacingLeft=6;overflow=hidden;fontSize=12;fontFamily=Helvetica;html=1;whiteSpace=wrap;labelBorderColor=none;labelBackgroundColor=none;swimlaneFillColor=default;shadow=0;swimlaneLine=1;rounded=1;strokeColor=default;" parent="-N6aTKsf7TU79jUoc55K-470" vertex="1">
          <mxGeometry x="130" width="190" height="30" as="geometry">
            <mxRectangle width="190" height="30" as="alternateBounds" />
          </mxGeometry>
        </mxCell>
        <mxCell id="-N6aTKsf7TU79jUoc55K-474" style="shape=tableRow;horizontal=0;startSize=0;swimlaneHead=0;swimlaneBody=0;fillColor=none;collapsible=0;dropTarget=0;points=[[0,0.5],[1,0.5]];portConstraint=eastwest;top=0;left=0;right=0;bottom=0;fontSize=12;fontFamily=Helvetica;html=1;whiteSpace=wrap;labelBorderColor=none;labelBackgroundColor=none;swimlaneFillColor=default;shadow=0;swimlaneLine=1;rounded=1;strokeColor=default;" parent="-N6aTKsf7TU79jUoc55K-449" vertex="1">
          <mxGeometry y="150" width="320" height="30" as="geometry" />
        </mxCell>
        <mxCell id="-N6aTKsf7TU79jUoc55K-475" style="shape=partialRectangle;connectable=0;fillColor=none;top=0;left=0;bottom=0;right=0;editable=1;overflow=hidden;fontSize=12;fontFamily=Helvetica;html=1;whiteSpace=wrap;labelBorderColor=none;labelBackgroundColor=none;swimlaneFillColor=default;shadow=0;swimlaneLine=1;perimeterSpacing=0;rounded=1;strokeColor=default;" parent="-N6aTKsf7TU79jUoc55K-474" vertex="1">
          <mxGeometry width="30" height="30" as="geometry">
            <mxRectangle width="30" height="30" as="alternateBounds" />
          </mxGeometry>
        </mxCell>
        <mxCell id="-N6aTKsf7TU79jUoc55K-476" value="created_at" style="shape=partialRectangle;connectable=0;fillColor=none;top=0;left=0;bottom=0;right=0;align=left;spacingLeft=6;overflow=hidden;fontSize=12;fontFamily=Helvetica;html=1;whiteSpace=wrap;labelBorderColor=none;labelBackgroundColor=none;swimlaneFillColor=default;shadow=0;swimlaneLine=1;perimeterSpacing=0;rounded=1;strokeColor=default;" parent="-N6aTKsf7TU79jUoc55K-474" vertex="1">
          <mxGeometry x="30" width="100" height="30" as="geometry">
            <mxRectangle width="100" height="30" as="alternateBounds" />
          </mxGeometry>
        </mxCell>
        <mxCell id="-N6aTKsf7TU79jUoc55K-477" value="Timestamp With Time Zone" style="shape=partialRectangle;connectable=0;fillColor=none;top=0;left=0;bottom=0;right=0;align=left;spacingLeft=6;overflow=hidden;fontSize=12;fontFamily=Helvetica;html=1;whiteSpace=wrap;labelBorderColor=none;labelBackgroundColor=none;swimlaneFillColor=default;shadow=0;swimlaneLine=1;perimeterSpacing=0;rounded=1;strokeColor=default;" parent="-N6aTKsf7TU79jUoc55K-474" vertex="1">
          <mxGeometry x="130" width="190" height="30" as="geometry">
            <mxRectangle width="190" height="30" as="alternateBounds" />
          </mxGeometry>
        </mxCell>
        <mxCell id="-N6aTKsf7TU79jUoc55K-478" style="shape=tableRow;horizontal=0;startSize=0;swimlaneHead=0;swimlaneBody=0;fillColor=none;collapsible=0;dropTarget=0;points=[[0,0.5],[1,0.5]];portConstraint=eastwest;top=0;left=0;right=0;bottom=0;fontSize=12;fontFamily=Helvetica;html=1;whiteSpace=wrap;labelBorderColor=none;labelBackgroundColor=none;swimlaneFillColor=default;shadow=0;swimlaneLine=1;rounded=1;strokeColor=default;" parent="-N6aTKsf7TU79jUoc55K-449" vertex="1">
          <mxGeometry y="180" width="320" height="30" as="geometry" />
        </mxCell>
        <mxCell id="-N6aTKsf7TU79jUoc55K-479" style="shape=partialRectangle;connectable=0;fillColor=none;top=0;left=0;bottom=0;right=0;editable=1;overflow=hidden;fontSize=12;fontFamily=Helvetica;html=1;whiteSpace=wrap;labelBorderColor=none;labelBackgroundColor=none;swimlaneFillColor=default;shadow=0;swimlaneLine=1;perimeterSpacing=0;rounded=1;strokeColor=default;" parent="-N6aTKsf7TU79jUoc55K-478" vertex="1">
          <mxGeometry width="30" height="30" as="geometry">
            <mxRectangle width="30" height="30" as="alternateBounds" />
          </mxGeometry>
        </mxCell>
        <mxCell id="-N6aTKsf7TU79jUoc55K-480" value="updated_at" style="shape=partialRectangle;connectable=0;fillColor=none;top=0;left=0;bottom=0;right=0;align=left;spacingLeft=6;overflow=hidden;fontSize=12;fontFamily=Helvetica;html=1;whiteSpace=wrap;labelBorderColor=none;labelBackgroundColor=none;swimlaneFillColor=default;shadow=0;swimlaneLine=1;perimeterSpacing=0;rounded=1;strokeColor=default;" parent="-N6aTKsf7TU79jUoc55K-478" vertex="1">
          <mxGeometry x="30" width="100" height="30" as="geometry">
            <mxRectangle width="100" height="30" as="alternateBounds" />
          </mxGeometry>
        </mxCell>
        <mxCell id="-N6aTKsf7TU79jUoc55K-481" value="Timestamp With Time Zone:N" style="shape=partialRectangle;connectable=0;fillColor=none;top=0;left=0;bottom=0;right=0;align=left;spacingLeft=6;overflow=hidden;fontSize=12;fontFamily=Helvetica;html=1;whiteSpace=wrap;labelBorderColor=none;labelBackgroundColor=none;swimlaneFillColor=default;shadow=0;swimlaneLine=1;perimeterSpacing=0;rounded=1;strokeColor=default;" parent="-N6aTKsf7TU79jUoc55K-478" vertex="1">
          <mxGeometry x="130" width="190" height="30" as="geometry">
            <mxRectangle width="190" height="30" as="alternateBounds" />
          </mxGeometry>
        </mxCell>
        <mxCell id="18" style="shape=tableRow;horizontal=0;startSize=0;swimlaneHead=0;swimlaneBody=0;fillColor=none;collapsible=0;dropTarget=0;points=[[0,0.5],[1,0.5]];portConstraint=eastwest;top=0;left=0;right=0;bottom=0;fontSize=12;fontFamily=Helvetica;html=1;whiteSpace=wrap;labelBorderColor=none;labelBackgroundColor=none;swimlaneFillColor=default;shadow=0;swimlaneLine=1;rounded=1;strokeColor=default;" parent="-N6aTKsf7TU79jUoc55K-449" vertex="1">
          <mxGeometry y="210" width="320" height="30" as="geometry" />
        </mxCell>
        <mxCell id="19" style="shape=partialRectangle;connectable=0;fillColor=none;top=0;left=0;bottom=0;right=0;editable=1;overflow=hidden;fontSize=12;fontFamily=Helvetica;html=1;whiteSpace=wrap;labelBorderColor=none;labelBackgroundColor=none;swimlaneFillColor=default;shadow=0;swimlaneLine=1;perimeterSpacing=0;rounded=1;strokeColor=default;" parent="18" vertex="1">
          <mxGeometry width="30" height="30" as="geometry">
            <mxRectangle width="30" height="30" as="alternateBounds" />
          </mxGeometry>
        </mxCell>
        <mxCell id="20" value="deleted_at" style="shape=partialRectangle;connectable=0;fillColor=none;top=0;left=0;bottom=0;right=0;align=left;spacingLeft=6;overflow=hidden;fontSize=12;fontFamily=Helvetica;html=1;whiteSpace=wrap;labelBorderColor=none;labelBackgroundColor=none;swimlaneFillColor=default;shadow=0;swimlaneLine=1;perimeterSpacing=0;rounded=1;strokeColor=default;" parent="18" vertex="1">
          <mxGeometry x="30" width="100" height="30" as="geometry">
            <mxRectangle width="100" height="30" as="alternateBounds" />
          </mxGeometry>
        </mxCell>
        <mxCell id="21" value="Timestamp With Time Zone:N" style="shape=partialRectangle;connectable=0;fillColor=none;top=0;left=0;bottom=0;right=0;align=left;spacingLeft=6;overflow=hidden;fontSize=12;fontFamily=Helvetica;html=1;whiteSpace=wrap;labelBorderColor=none;labelBackgroundColor=none;swimlaneFillColor=default;shadow=0;swimlaneLine=1;perimeterSpacing=0;rounded=1;strokeColor=default;" parent="18" vertex="1">
          <mxGeometry x="130" width="190" height="30" as="geometry">
            <mxRectangle width="190" height="30" as="alternateBounds" />
          </mxGeometry>
        </mxCell>
        <mxCell id="22" style="shape=tableRow;horizontal=0;startSize=0;swimlaneHead=0;swimlaneBody=0;fillColor=none;collapsible=0;dropTarget=0;points=[[0,0.5],[1,0.5]];portConstraint=eastwest;top=0;left=0;right=0;bottom=0;fontSize=12;fontFamily=Helvetica;html=1;whiteSpace=wrap;labelBorderColor=none;labelBackgroundColor=none;swimlaneFillColor=default;shadow=0;swimlaneLine=1;rounded=1;strokeColor=default;" parent="-N6aTKsf7TU79jUoc55K-449" vertex="1">
          <mxGeometry y="240" width="320" height="30" as="geometry" />
        </mxCell>
        <mxCell id="23" style="shape=partialRectangle;connectable=0;fillColor=none;top=0;left=0;bottom=0;right=0;editable=1;overflow=hidden;fontSize=12;fontFamily=Helvetica;html=1;whiteSpace=wrap;labelBorderColor=none;labelBackgroundColor=none;swimlaneFillColor=default;shadow=0;swimlaneLine=1;perimeterSpacing=0;rounded=1;strokeColor=default;" parent="22" vertex="1">
          <mxGeometry width="30" height="30" as="geometry">
            <mxRectangle width="30" height="30" as="alternateBounds" />
          </mxGeometry>
        </mxCell>
        <mxCell id="24" value="version" style="shape=partialRectangle;connectable=0;fillColor=none;top=0;left=0;bottom=0;right=0;align=left;spacingLeft=6;overflow=hidden;fontSize=12;fontFamily=Helvetica;html=1;whiteSpace=wrap;labelBorderColor=none;labelBackgroundColor=none;swimlaneFillColor=default;shadow=0;swimlaneLine=1;perimeterSpacing=0;rounded=1;strokeColor=default;" parent="22" vertex="1">
          <mxGeometry x="30" width="100" height="30" as="geometry">
            <mxRectangle width="100" height="30" as="alternateBounds" />
          </mxGeometry>
        </mxCell>
        <mxCell id="25" value="Integer" style="shape=partialRectangle;connectable=0;fillColor=none;top=0;left=0;bottom=0;right=0;align=left;spacingLeft=6;overflow=hidden;fontSize=12;fontFamily=Helvetica;html=1;whiteSpace=wrap;labelBorderColor=none;labelBackgroundColor=none;swimlaneFillColor=default;shadow=0;swimlaneLine=1;perimeterSpacing=0;rounded=1;strokeColor=default;" parent="22" vertex="1">
          <mxGeometry x="130" width="190" height="30" as="geometry">
            <mxRectangle width="190" height="30" as="alternateBounds" />
          </mxGeometry>
        </mxCell>
        <mxCell id="-N6aTKsf7TU79jUoc55K-484" style="edgeStyle=elbowEdgeStyle;rounded=1;orthogonalLoop=1;jettySize=auto;html=1;exitX=0;exitY=0.5;exitDx=0;exitDy=0;entryX=1;entryY=0.5;entryDx=0;entryDy=0;fontSize=12;startSize=8;endSize=8;startArrow=ERmandOne;startFill=0;endArrow=ERoneToMany;endFill=0;fillColor=none;strokeColor=default;fontFamily=Helvetica;" parent="1" source="-N6aTKsf7TU79jUoc55K-60" target="-N6aTKsf7TU79jUoc55K-454" edge="1">
          <mxGeometry relative="1" as="geometry" />
        </mxCell>
      </root>
    </mxGraphModel>
  </diagram>
</mxfile>
